Oxanium-SemiBold.ufo
<glyph name="numbersign" format="2">
  <advance width="675"/>
  <unicode hex="0023"/>
  <outline>
    <contour>
      <point x="50" y="175" type="line"/>
      <point x="50" y="275" type="line"/>
      <point x="171" y="275" type="line"/>
      <point x="171" y="415" type="line"/>
      <point x="50" y="415" type="line"/>
      <point x="50" y="515" type="line"/>
      <point x="171" y="515" type="line"/>
      <point x="171" y="690" type="line"/>
      <point x="276" y="690" type="line"/>
      <point x="276" y="515" type="line"/>
      <point x="399" y="515" type="line"/>
      <point x="399" y="690" type="line"/>
      <point x="504" y="690" type="line"/>
      <point x="504" y="515" type="line"/>
      <point x="625" y="515" type="line"/>
      <point x="625" y="415" type="line"/>
      <point x="504" y="415" type="line"/>
      <point x="504" y="275" type="line"/>
      <point x="625" y="275" type="line"/>
      <point x="625" y="175" type="line"/>
      <point x="504" y="175" type="line"/>
      <point x="504" y="0" type="line"/>
      <point x="399" y="0" type="line"/>
      <point x="399" y="175" type="line"/>
      <point x="276" y="175" type="line"/>
      <point x="276" y="0" type="line"/>
      <point x="171" y="0" type="line"/>
      <point x="171" y="175" type="line"/>
    </contour>
    <contour>
      <point x="276" y="275" type="line"/>
      <point x="399" y="275" type="line"/>
      <point x="399" y="415" type="line"/>
      <point x="276" y="415" type="line"/>
    </contour>
  </outline>
</glyph>
<glyph name="dollar" format="2">
  <advance width="578"/>
  <unicode hex="0024"/>
  <outline>
    <contour>
      <point x="61" y="46" type="line"/>
      <point x="61" y="110" type="line"/>
      <point x="351" y="110" type="line" smooth="yes"/>
      <point x="395" y="110"/>
      <point x="395" y="154" type="qcurve" smooth="yes"/>
      <point x="395" y="215" type="line" smooth="yes"/>
      <point x="395" y="254"/>
      <point x="360" y="261" type="qcurve" smooth="yes"/>
      <point x="178" y="297" type="line" smooth="yes"/>
      <point x="61" y="321"/>
      <point x="61" y="454" type="qcurve" smooth="yes"/>
      <point x="61" y="498" type="line" smooth="yes"/>
      <point x="61" y="660"/>
      <point x="224" y="660" type="qcurve" smooth="yes"/>
      <point x="238" y="660" type="line"/>
      <point x="238" y="780" type="line"/>
      <point x="340" y="780" type="line"/>
      <point x="340" y="660" type="line"/>
      <point x="438" y="660" type="line"/>
      <point x="497" y="614" type="line"/>
      <point x="497" y="550" type="line"/>
      <point x="227" y="550" type="line" smooth="yes"/>
      <point x="183" y="550"/>
      <point x="183" y="506" type="qcurve" smooth="yes"/>
      <point x="183" y="451" type="line" smooth="yes"/>
      <point x="183" y="412"/>
      <point x="218" y="405" type="qcurve" smooth="yes"/>
      <point x="400" y="369" type="line" smooth="yes"/>
      <point x="517" y="345"/>
      <point x="517" y="213" type="qcurve" smooth="yes"/>
      <point x="517" y="162" type="line" smooth="yes"/>
      <point x="517" y="0"/>
      <point x="354" y="0" type="qcurve" smooth="yes"/>
      <point x="340" y="0" type="line"/>
      <point x="340" y="-120" type="line"/>
      <point x="238" y="-120" type="line"/>
      <point x="238" y="0" type="line"/>
      <point x="120" y="0" type="line"/>
    </contour>
  </outline>
</glyph>
<glyph name="asterisk" format="2">
  <advance width="509"/>
  <unicode hex="002A"/>
  <outline>
    <contour>
      <point x="41" y="503" type="line"/>
      <point x="68" y="586" type="line"/>
      <point x="209" y="544" type="line"/>
      <point x="209" y="690" type="line"/>
      <point x="300" y="690" type="line"/>
      <point x="300" y="544" type="line"/>
      <point x="441" y="586" type="line"/>
      <point x="468" y="503" type="line"/>
      <point x="329" y="455" type="line"/>
      <point x="414" y="336" type="line"/>
      <point x="343" y="284" type="line"/>
      <point x="254" y="400" type="line"/>
      <point x="166" y="284" type="line"/>
      <point x="95" y="336" type="line"/>
      <point x="179" y="455" type="line"/>
    </contour>
  </outline>
</glyph>
<glyph name="plus" format="2">
  <advance width="578"/>
  <unicode hex="002B"/>
  <outline>
    <contour>
      <point x="61" y="285" type="line"/>
      <point x="61" y="385" type="line"/>
      <point x="236" y="385" type="line"/>
      <point x="236" y="570" type="line"/>
      <point x="342" y="570" type="line"/>
      <point x="342" y="385" type="line"/>
      <point x="517" y="385" type="line"/>
      <point x="517" y="285" type="line"/>
      <point x="342" y="285" type="line"/>
      <point x="342" y="100" type="line"/>
      <point x="236" y="100" type="line"/>
      <point x="236" y="285" type="line"/>
    </contour>
  </outline>
</glyph>
<glyph name="hyphen" format="2">
  <advance width="373"/>
  <unicode hex="002D"/>
  <outline>
    <contour>
      <point x="40" y="255" type="line"/>
      <point x="40" y="355" type="line"/>
      <point x="333" y="355" type="line"/>
      <point x="333" y="255" type="line"/>
    </contour>
  </outline>
</glyph>
<glyph name="slash" format="2">
  <advance width="419"/>
  <unicode hex="002F"/>
  <outline>
    <contour>
      <point x="20" y="-19" type="line"/>
      <point x="300" y="745" type="line"/>
      <point x="399" y="709" type="line"/>
      <point x="119" y="-55" type="line"/>
    </contour>
  </outline>
</glyph>
<glyph name="one" format="2">
  <advance width="578"/>
  <unicode hex="0031"/>
  <outline>
    <contour>
      <point x="84" y="0" type="line"/>
      <point x="84" y="110" type="line"/>
      <point x="244" y="110" type="line"/>
      <point x="244" y="580" type="line"/>
      <point x="113" y="580" type="line"/>
      <point x="113" y="644" type="line"/>
      <point x="172" y="690" type="line"/>
      <point x="366" y="690" type="line"/>
      <point x="366" y="110" type="line"/>
      <point x="510" y="110" type="line"/>
      <point x="510" y="0" type="line"/>
    </contour>
  </outline>
</glyph>
<glyph name="two" format="2">
  <advance width="578"/>
  <unicode hex="0032"/>
  <outline>
    <contour>
      <point x="56" y="0" type="line"/>
      <point x="56" y="219" type="line" smooth="yes"/>
      <point x="56" y="352"/>
      <point x="173" y="376" type="qcurve" smooth="yes"/>
      <point x="365" y="414" type="line" smooth="yes"/>
      <point x="400" y="421"/>
      <point x="400" y="460" type="qcurve" smooth="yes"/>
      <point x="400" y="536" type="line" smooth="yes"/>
      <point x="400" y="580"/>
      <point x="356" y="580" type="qcurve" smooth="yes"/>
      <point x="76" y="580" type="line"/>
      <point x="76" y="644" type="line"/>
      <point x="135" y="690" type="line"/>
      <point x="359" y="690" type="line" smooth="yes"/>
      <point x="522" y="690"/>
      <point x="522" y="528" type="qcurve" smooth="yes"/>
      <point x="522" y="463" type="line" smooth="yes"/>
      <point x="522" y="330"/>
      <point x="405" y="306" type="qcurve" smooth="yes"/>
      <point x="213" y="268" type="line" smooth="yes"/>
      <point x="178" y="261"/>
      <point x="178" y="222" type="qcurve" smooth="yes"/>
      <point x="178" y="110" type="line"/>
      <point x="522" y="110" type="line"/>
      <point x="522" y="0" type="line"/>
    </contour>
  </outline>
</glyph>
<glyph name="three" format="2">
  <advance width="578"/>
  <unicode hex="0033"/>
  <outline>
    <contour>
      <point x="66" y="46" type="line"/>
      <point x="66" y="110" type="line"/>
      <point x="356" y="110" type="line" smooth="yes"/>
      <point x="400" y="110"/>
      <point x="400" y="154" type="qcurve" smooth="yes"/>
      <point x="400" y="259" type="line" smooth="yes"/>
      <point x="400" y="303"/>
      <point x="356" y="303" type="qcurve" smooth="yes"/>
      <point x="140" y="303" type="line"/>
      <point x="140" y="413" type="line"/>
      <point x="356" y="413" type="line" smooth="yes"/>
      <point x="400" y="413"/>
      <point x="400" y="457" type="qcurve" smooth="yes"/>
      <point x="400" y="536" type="line" smooth="yes"/>
      <point x="400" y="580"/>
      <point x="356" y="580" type="qcurve" smooth="yes"/>
      <point x="76" y="580" type="line"/>
      <point x="76" y="644" type="line"/>
      <point x="135" y="690" type="line"/>
      <point x="359" y="690" type="line" smooth="yes"/>
      <point x="522" y="690"/>
      <point x="522" y="528" type="qcurve" smooth="yes"/>
      <point x="522" y="460" type="line" smooth="yes"/>
      <point x="522" y="420"/>
      <point x="497" y="395" type="qcurve" smooth="yes"/>
      <point x="462" y="360" type="line"/>
      <point x="497" y="325" type="line" smooth="yes"/>
      <point x="522" y="300"/>
      <point x="522" y="260" type="qcurve" smooth="yes"/>
      <point x="522" y="162" type="line" smooth="yes"/>
      <point x="522" y="0"/>
      <point x="359" y="0" type="qcurve" smooth="yes"/>
      <point x="125" y="0" type="line"/>
    </contour>
  </outline>
</glyph>
<glyph name="five" format="2">
  <advance width="578"/>
  <unicode hex="0035"/>
  <outline>
    <contour>
      <point x="46" y="46" type="line"/>
      <point x="46" y="110" type="line"/>
      <point x="356" y="110" type="line" smooth="yes"/>
      <point x="400" y="110"/>
      <point x="400" y="154" type="qcurve" smooth="yes"/>
      <point x="400" y="269" type="line" smooth="yes"/>
      <point x="400" y="313"/>
      <point x="356" y="313" type="qcurve" smooth="yes"/>
      <point x="56" y="313" type="line"/>
      <point x="56" y="690" type="line"/>
      <point x="492" y="690" type="line"/>
      <point x="492" y="580" type="line"/>
      <point x="178" y="580" type="line"/>
      <point x="178" y="423" type="line"/>
      <point x="359" y="423" type="line" smooth="yes"/>
      <point x="522" y="423"/>
      <point x="522" y="260" type="qcurve" smooth="yes"/>
      <point x="522" y="162" type="line" smooth="yes"/>
      <point x="522" y="0"/>
      <point x="359" y="0" type="qcurve" smooth="yes"/>
      <point x="105" y="0" type="line"/>
    </contour>
  </outline>
</glyph>
<glyph name="eight" format="2">
  <advance width="578"/>
  <unicode hex="0038"/>
  <outline>
    <contour>
      <point x="56" y="162" type="qcurve" smooth="yes"/>
      <point x="56" y="260" type="line" smooth="yes"/>
      <point x="56" y="300"/>
      <point x="81" y="325" type="qcurve" smooth="yes"/>
      <point x="116" y="360" type="line"/>
      <point x="81" y="395" type="line" smooth="yes"/>
      <point x="56" y="420"/>
      <point x="56" y="460" type="qcurve" smooth="yes"/>
      <point x="56" y="528" type="line" smooth="yes"/>
      <point x="56" y="690"/>
      <point x="219" y="690" type="qcurve" smooth="yes"/>
      <point x="359" y="690" type="line" smooth="yes"/>
      <point x="522" y="690"/>
      <point x="522" y="528" type="qcurve" smooth="yes"/>
      <point x="522" y="460" type="line" smooth="yes"/>
      <point x="522" y="420"/>
      <point x="497" y="395" type="qcurve" smooth="yes"/>
      <point x="462" y="360" type="line"/>
      <point x="497" y="325" type="line" smooth="yes"/>
      <point x="522" y="300"/>
      <point x="522" y="260" type="qcurve" smooth="yes"/>
      <point x="522" y="162" type="line" smooth="yes"/>
      <point x="522" y="0"/>
      <point x="359" y="0" type="qcurve" smooth="yes"/>
      <point x="219" y="0" type="line" smooth="yes"/>
      <point x="56" y="0"/>
    </contour>
    <contour>
      <point x="178" y="154" type="line" smooth="yes"/>
      <point x="178" y="110"/>
      <point x="222" y="110" type="qcurve" smooth="yes"/>
      <point x="356" y="110" type="line" smooth="yes"/>
      <point x="400" y="110"/>
      <point x="400" y="154" type="qcurve" smooth="yes"/>
      <point x="400" y="259" type="line" smooth="yes"/>
      <point x="400" y="303"/>
      <point x="356" y="303" type="qcurve" smooth="yes"/>
      <point x="222" y="303" type="line" smooth="yes"/>
      <point x="178" y="303"/>
      <point x="178" y="259" type="qcurve" smooth="yes"/>
    </contour>
    <contour>
      <point x="178" y="457" type="line" smooth="yes"/>
      <point x="178" y="413"/>
      <point x="222" y="413" type="qcurve" smooth="yes"/>
      <point x="356" y="413" type="line" smooth="yes"/>
      <point x="400" y="413"/>
      <point x="400" y="457" type="qcurve" smooth="yes"/>
      <point x="400" y="536" type="line" smooth="yes"/>
      <point x="400" y="580"/>
      <point x="356" y="580" type="qcurve" smooth="yes"/>
      <point x="222" y="580" type="line" smooth="yes"/>
      <point x="178" y="580"/>
      <point x="178" y="536" type="qcurve" smooth="yes"/>
    </contour>
  </outline>
</glyph>
<glyph name="nine" format="2">
  <advance width="578"/>
  <unicode hex="0039"/>
  <outline>
    <contour>
      <point x="56" y="429" type="qcurve" smooth="yes"/>
      <point x="56" y="528" type="line" smooth="yes"/>
      <point x="56" y="690"/>
      <point x="219" y="690" type="qcurve" smooth="yes"/>
      <point x="359" y="690" type="line" smooth="yes"/>
      <point x="522" y="690"/>
      <point x="522" y="528" type="qcurve" smooth="yes"/>
      <point x="522" y="195" type="line" smooth="yes"/>
      <point x="522" y="0"/>
      <point x="326" y="0" type="qcurve" smooth="yes"/>
      <point x="145" y="0" type="line"/>
      <point x="86" y="46" type="line"/>
      <point x="86" y="110" type="line"/>
      <point x="330" y="110" type="line" smooth="yes"/>
      <point x="400" y="110"/>
      <point x="400" y="180" type="qcurve" smooth="yes"/>
      <point x="400" y="267" type="line"/>
      <point x="219" y="267" type="line" smooth="yes"/>
      <point x="56" y="267"/>
    </contour>
    <contour>
      <point x="178" y="421" type="line" smooth="yes"/>
      <point x="178" y="377"/>
      <point x="222" y="377" type="qcurve" smooth="yes"/>
      <point x="400" y="377" type="line"/>
      <point x="400" y="536" type="line" smooth="yes"/>
      <point x="400" y="580"/>
      <point x="356" y="580" type="qcurve" smooth="yes"/>
      <point x="222" y="580" type="line" smooth="yes"/>
      <point x="178" y="580"/>
      <point x="178" y="536" type="qcurve" smooth="yes"/>
    </contour>
  </outline>
</glyph>
<glyph name="equal" format="2">
  <advance width="578"/>
  <unicode hex="003D"/>
  <outline>
    <contour>
      <point x="61" y="175" type="line"/>
      <point x="61" y="275" type="line"/>
      <point x="517" y="275" type="line"/>
      <point x="517" y="175" type="line"/>
    </contour>
    <contour>
      <point x="61" y="395" type="line"/>
      <point x="61" y="495" type="line"/>
      <point x="517" y="495" type="line"/>
      <point x="517" y="395" type="line"/>
    </contour>
  </outline>
</glyph>
<glyph name="greater" format="2">
  <advance width="578"/>
  <unicode hex="003E"/>
  <outline>
    <contour>
      <point x="58" y="171" type="line"/>
      <point x="407" y="335" type="line"/>
      <point x="58" y="499" type="line"/>
      <point x="100" y="588" type="line"/>
      <point x="514" y="390" type="line"/>
      <point x="514" y="280" type="line"/>
      <point x="100" y="82" type="line"/>
    </contour>
  </outline>
</glyph>
<glyph name="question" format="2">
  <advance width="515"/>
  <unicode hex="003F"/>
  <outline>
    <contour>
      <point x="40" y="580" type="line"/>
      <point x="40" y="644" type="line"/>
      <point x="99" y="690" type="line"/>
      <point x="303" y="690" type="line" smooth="yes"/>
      <point x="465" y="690"/>
      <point x="465" y="528" type="qcurve" smooth="yes"/>
      <point x="465" y="441" type="line" smooth="yes"/>
      <point x="465" y="279"/>
      <point x="303" y="279" type="qcurve" smooth="yes"/>
      <point x="280" y="279" type="line"/>
      <point x="280" y="218" type="line"/>
      <point x="159" y="218" type="line"/>
      <point x="159" y="389" type="line"/>
      <point x="299" y="389" type="line" smooth="yes"/>
      <point x="343" y="389"/>
      <point x="343" y="433" type="qcurve" smooth="yes"/>
      <point x="343" y="536" type="line" smooth="yes"/>
      <point x="343" y="580"/>
      <point x="299" y="580" type="qcurve" smooth="yes"/>
    </contour>
    <contour>
      <point x="154" y="0" type="line"/>
      <point x="154" y="131" type="line"/>
      <point x="285" y="131" type="line"/>
      <point x="285" y="0" type="line"/>
    </contour>
  </outline>
</glyph>
<glyph name="A" format="2">
  <advance width="653"/>
  <unicode hex="0041"/>
  <outline>
    <contour>
      <point x="19" y="24" type="line"/>
      <point x="232" y="690" type="line"/>
      <point x="421" y="690" type="line"/>
      <point x="634" y="24" type="line"/>
      <point x="618" y="0" type="line"/>
      <point x="517" y="0" type="line"/>
      <point x="469" y="153" type="line"/>
      <point x="183" y="153" type="line"/>
      <point x="136" y="0" type="line"/>
      <point x="35" y="0" type="line"/>
    </contour>
    <contour>
      <point x="217" y="263" type="line"/>
      <point x="436" y="263" type="line"/>
      <point x="336" y="580" type="line"/>
      <point x="317" y="580" type="line"/>
    </contour>
  </outline>
</glyph>
<glyph name="C" format="2">
  <advance width="619"/>
  <unicode hex="0043"/>
  <outline>
    <contour>
      <point x="75" y="162" type="qcurve" smooth="yes"/>
      <point x="75" y="528" type="line" smooth="yes"/>
      <point x="75" y="690"/>
      <point x="237" y="690" type="qcurve" smooth="yes"/>
      <point x="510" y="690" type="line"/>
      <point x="569" y="644" type="line"/>
      <point x="569" y="580" type="line"/>
      <point x="241" y="580" type="line" smooth="yes"/>
      <point x="197" y="580"/>
      <point x="197" y="536" type="qcurve" smooth="yes"/>
      <point x="197" y="154" type="line" smooth="yes"/>
      <point x="197" y="110"/>
      <point x="241" y="110" type="qcurve" smooth="yes"/>
      <point x="569" y="110" type="line"/>
      <point x="569" y="46" type="line"/>
      <point x="510" y="0" type="line"/>
      <point x="237" y="0" type="line" smooth="yes"/>
      <point x="75" y="0"/>
    </contour>
  </outline>
</glyph>
<glyph name="E" format="2">
  <advance width="599"/>
  <unicode hex="0045"/>
  <outline>
    <contour>
      <point x="85" y="0" type="line"/>
      <point x="85" y="690" type="line"/>
      <point x="549" y="690" type="line"/>
      <point x="549" y="580" type="line"/>
      <point x="207" y="580" type="line"/>
      <point x="207" y="413" type="line"/>
      <point x="519" y="413" type="line"/>
      <point x="519" y="303" type="line"/>
      <point x="207" y="303" type="line"/>
      <point x="207" y="110" type="line"/>
      <point x="549" y="110" type="line"/>
      <point x="549" y="0" type="line"/>
    </contour>
  </outline>
</glyph>
<glyph name="H" format="2">
  <advance width="705"/>
  <unicode hex="0048"/>
  <outline>
    <contour>
      <point x="85" y="0" type="line"/>
      <point x="85" y="690" type="line"/>
      <point x="207" y="690" type="line"/>
      <point x="207" y="413" type="line"/>
      <point x="498" y="413" type="line"/>
      <point x="498" y="690" type="line"/>
      <point x="620" y="690" type="line"/>
      <point x="620" y="0" type="line"/>
      <point x="498" y="0" type="line"/>
      <point x="498" y="303" type="line"/>
      <point x="207" y="303" type="line"/>
      <point x="207" y="0" type="line"/>
    </contour>
  </outline>
</glyph>
<glyph name="I" format="2">
  <advance width="292"/>
  <unicode hex="0049"/>
  <outline>
    <contour>
      <point x="85" y="0" type="line"/>
      <point x="85" y="690" type="line"/>
      <point x="207" y="690" type="line"/>
      <point x="207" y="0" type="line"/>
    </contour>
  </outline>
</glyph>
<glyph name="L" format="2">
  <advance width="543"/>
  <unicode hex="004C"/>
  <outline>
    <contour>
      <point x="85" y="0" type="line"/>
      <point x="85" y="690" type="line"/>
      <point x="207" y="690" type="line"/>
      <point x="207" y="110" type="line"/>
      <point x="519" y="110" type="line"/>
      <point x="519" y="0" type="line"/>
    </contour>
  </outline>
</glyph>
<glyph name="M" format="2">
  <advance width="888"/>
  <unicode hex="004D"/>
  <outline>
    <contour>
      <point x="85" y="0" type="line"/>
      <point x="85" y="690" type="line"/>
      <point x="234" y="690" type="line"/>
      <point x="444" y="243" type="line"/>
      <point x="653" y="690" type="line"/>
      <point x="803" y="690" type="line"/>
      <point x="803" y="0" type="line"/>
      <point x="681" y="0" type="line"/>
      <point x="681" y="483" type="line"/>
      <point x="498" y="94" type="line"/>
      <point x="389" y="94" type="line"/>
      <point x="207" y="483" type="line"/>
      <point x="207" y="0" type="line"/>
    </contour>
  </outline>
</glyph>
<glyph name="P" format="2">
  <advance width="635"/>
  <unicode hex="0050"/>
  <outline>
    <contour>
      <point x="85" y="0" type="line"/>
      <point x="85" y="690" type="line"/>
      <point x="418" y="690" type="line" smooth="yes"/>
      <point x="580" y="690"/>
      <point x="580" y="528" type="qcurve" smooth="yes"/>
      <point x="580" y="395" type="line" smooth="yes"/>
      <point x="580" y="233"/>
      <point x="418" y="233" type="qcurve" smooth="yes"/>
      <point x="207" y="233" type="line"/>
      <point x="207" y="0" type="line"/>
    </contour>
    <contour>
      <point x="207" y="343" type="line"/>
      <point x="414" y="343" type="line" smooth="yes"/>
      <point x="458" y="343"/>
      <point x="458" y="387" type="qcurve" smooth="yes"/>
      <point x="458" y="536" type="line" smooth="yes"/>
      <point x="458" y="580"/>
      <point x="414" y="580" type="qcurve" smooth="yes"/>
      <point x="207" y="580" type="line"/>
    </contour>
  </outline>
</glyph>
<glyph name="R" format="2">
  <advance width="645"/>
  <unicode hex="0052"/>
  <outline>
    <contour>
      <point x="85" y="0" type="line"/>
      <point x="85" y="690" type="line"/>
      <point x="418" y="690" type="line" smooth="yes"/>
      <point x="580" y="690"/>
      <point x="580" y="528" type="qcurve" smooth="yes"/>
      <point x="580" y="415" type="line" smooth="yes"/>
      <point x="580" y="288"/>
      <point x="480" y="261" type="qcurve"/>
      <point x="600" y="26" type="line"/>
      <point x="585" y="0" type="line"/>
      <point x="481" y="0" type="line"/>
      <point x="353" y="253" type="line"/>
      <point x="207" y="253" type="line"/>
      <point x="207" y="0" type="line"/>
    </contour>
    <contour>
      <point x="207" y="363" type="line"/>
      <point x="414" y="363" type="line" smooth="yes"/>
      <point x="458" y="363"/>
      <point x="458" y="407" type="qcurve" smooth="yes"/>
      <point x="458" y="536" type="line" smooth="yes"/>
      <point x="458" y="580"/>
      <point x="414" y="580" type="qcurve" smooth="yes"/>
      <point x="207" y="580" type="line"/>
    </contour>
  </outline>
</glyph>
<glyph name="T" format="2">
  <advance width="605"/>
  <unicode hex="0054"/>
  <outline>
    <contour>
      <point x="24" y="580" type="line"/>
      <point x="24" y="690" type="line"/>
      <point x="581" y="690" type="line"/>
      <point x="581" y="580" type="line"/>
      <point x="363" y="580" type="line"/>
      <point x="363" y="0" type="line"/>
      <point x="241" y="0" type="line"/>
      <point x="241" y="580" type="line"/>
    </contour>
  </outline>
</glyph>
<glyph name="U" format="2">
  <advance width="693"/>
  <unicode hex="0055"/>
  <outline>
    <contour>
      <point x="79" y="162" type="qcurve" smooth="yes"/>
      <point x="79" y="690" type="line"/>
      <point x="201" y="690" type="line"/>
      <point x="201" y="154" type="line" smooth="yes"/>
      <point x="201" y="110"/>
      <point x="245" y="110" type="qcurve" smooth="yes"/>
      <point x="448" y="110" type="line" smooth="yes"/>
      <point x="492" y="110"/>
      <point x="492" y="154" type="qcurve" smooth="yes"/>
      <point x="492" y="690" type="line"/>
      <point x="614" y="690" type="line"/>
      <point x="614" y="162" type="line" smooth="yes"/>
      <point x="614" y="0"/>
      <point x="452" y="0" type="qcurve" smooth="yes"/>
      <point x="241" y="0" type="line" smooth="yes"/>
      <point x="79" y="0"/>
    </contour>
  </outline>
</glyph>
<glyph name="V" format="2">
  <advance width="643"/>
  <unicode hex="0056"/>
  <outline>
    <contour>
      <point x="19" y="666" type="line"/>
      <point x="35" y="690" type="line"/>
      <point x="140" y="690" type="line"/>
      <point x="312" y="110" type="line"/>
      <point x="331" y="110" type="line"/>
      <point x="503" y="690" type="line"/>
      <point x="608" y="690" type="line"/>
      <point x="624" y="666" type="line"/>
      <point x="420" y="0" type="line"/>
      <point x="223" y="0" type="line"/>
    </contour>
  </outline>
</glyph>
<glyph name="W" format="2">
  <advance width="943"/>
  <unicode hex="0057"/>
  <outline>
    <contour>
      <point x="29" y="666" type="line"/>
      <point x="46" y="690" type="line"/>
      <point x="146" y="690" type="line"/>
      <point x="268" y="110" type="line"/>
      <point x="281" y="110" type="line"/>
      <point x="412" y="620" type="line"/>
      <point x="531" y="620" type="line"/>
      <point x="662" y="110" type="line"/>
      <point x="675" y="110" type="line"/>
      <point x="797" y="690" type="line"/>
      <point x="897" y="690" type="line"/>
      <point x="914" y="666" type="line"/>
      <point x="770" y="0" type="line"/>
      <point x="574" y="0" type="line"/>
      <point x="471" y="407" type="line"/>
      <point x="369" y="0" type="line"/>
      <point x="173" y="0" type="line"/>
    </contour>
  </outline>
</glyph>
<glyph name="Y" format="2">
  <advance width="603"/>
  <unicode hex="0059"/>
  <outline>
    <contour>
      <point x="19" y="666" type="line"/>
      <point x="34" y="690" type="line"/>
      <point x="137" y="690" type="line"/>
      <point x="301" y="376" type="line"/>
      <point x="465" y="690" type="line"/>
      <point x="569" y="690" type="line"/>
      <point x="584" y="666" type="line"/>
      <point x="362" y="248" type="line"/>
      <point x="362" y="0" type="line"/>
      <point x="240" y="0" type="line"/>
      <point x="240" y="248" type="line"/>
    </contour>
  </outline>
</glyph>
<glyph name="backslash" format="2">
  <advance width="419"/>
  <unicode hex="005C"/>
  <outline>
    <contour>
      <point x="20" y="709" type="line"/>
      <point x="119" y="745" type="line"/>
      <point x="399" y="-19" type="line"/>
      <point x="300" y="-55" type="line"/>
    </contour>
  </outline>
</glyph>
<glyph name="bracketright" format="2">
  <advance width="366"/>
  <unicode hex="005D"/>
  <outline>
    <contour>
      <point x="30" y="-78" type="line"/>
      <point x="165" y="-78" type="line"/>
      <point x="165" y="658" type="line"/>
      <point x="30" y="658" type="line"/>
      <point x="30" y="760" type="line"/>
      <point x="282" y="760" type="line"/>
      <point x="282" y="-180" type="line"/>
      <point x="30" y="-180" type="line"/>
    </contour>
  </outline>
</glyph>
<glyph name="a" format="2">
  <advance width="547"/>
  <unicode hex="0061"/>
  <outline>
    <contour>
      <point x="205" y="0" type="line" smooth="yes"/>
      <point x="47" y="0"/>
      <point x="47" y="312"/>
      <point x="205" y="312" type="qcurve" smooth="yes"/>
      <point x="360" y="312" type="line"/>
      <point x="360" y="377" type="line" smooth="yes"/>
      <point x="360" y="424"/>
      <point x="313" y="424" type="qcurve" smooth="yes"/>
      <point x="101" y="424" type="line"/>
      <point x="101" y="486" type="line"/>
      <point x="153" y="525" type="line"/>
      <point x="319" y="525" type="line" smooth="yes"/>
      <point x="476" y="525"/>
      <point x="476" y="367" type="qcurve" smooth="yes"/>
      <point x="476" y="0" type="line"/>
    </contour>
    <contour>
      <point x="164" y="148" type="line" smooth="yes"/>
      <point x="164" y="102"/>
      <point x="210" y="102" type="qcurve" smooth="yes"/>
      <point x="360" y="102" type="line"/>
      <point x="360" y="218" type="line"/>
      <point x="210" y="218" type="line" smooth="yes"/>
      <point x="164" y="218"/>
      <point x="164" y="172" type="qcurve" smooth="yes"/>
    </contour>
  </outline>
</glyph>
<glyph name="e" format="2">
  <advance width="579"/>
  <unicode hex="0065"/>
  <outline>
    <contour>
      <point x="67" y="158" type="qcurve" smooth="yes"/>
      <point x="67" y="367" type="line" smooth="yes"/>
      <point x="67" y="525"/>
      <point x="225" y="525" type="qcurve" smooth="yes"/>
      <point x="355" y="525" type="line" smooth="yes"/>
      <point x="512" y="525"/>
      <point x="512" y="367" type="qcurve" smooth="yes"/>
      <point x="512" y="217" type="line"/>
      <point x="184" y="217" type="line"/>
      <point x="184" y="148" type="line" smooth="yes"/>
      <point x="184" y="102"/>
      <point x="230" y="102" type="qcurve" smooth="yes"/>
      <point x="492" y="102" type="line"/>
      <point x="492" y="39" type="line"/>
      <point x="439" y="0" type="line"/>
      <point x="225" y="0" type="line" smooth="yes"/>
      <point x="67" y="0"/>
    </contour>
    <contour>
      <point x="184" y="311" type="line"/>
      <point x="396" y="311" type="line"/>
      <point x="396" y="377" type="line" smooth="yes"/>
      <point x="396" y="424"/>
      <point x="349" y="424" type="qcurve" smooth="yes"/>
      <point x="230" y="424" type="line" smooth="yes"/>
      <point x="184" y="424"/>
      <point x="184" y="377" type="qcurve" smooth="yes"/>
    </contour>
  </outline>
</glyph>
<glyph name="g" format="2">
  <advance width="582"/>
  <unicode hex="0067"/>
  <outline>
    <contour>
      <point x="64" y="158" type="qcurve" smooth="yes"/>
      <point x="64" y="367" type="line" smooth="yes"/>
      <point x="64" y="525"/>
      <point x="222" y="525" type="qcurve" smooth="yes"/>
      <point x="510" y="525" type="line"/>
      <point x="510" y="-42" type="line" smooth="yes"/>
      <point x="510" y="-200"/>
      <point x="352" y="-200" type="qcurve" smooth="yes"/>
      <point x="160" y="-200" type="line"/>
      <point x="108" y="-161" type="line"/>
      <point x="108" y="-98" type="line"/>
      <point x="347" y="-98" type="line" smooth="yes"/>
      <point x="393" y="-98"/>
      <point x="393" y="-52" type="qcurve" smooth="yes"/>
      <point x="393" y="0" type="line"/>
      <point x="222" y="0" type="line" smooth="yes"/>
      <point x="64" y="0"/>
    </contour>
    <contour>
      <point x="181" y="148" type="line" smooth="yes"/>
      <point x="181" y="102"/>
      <point x="227" y="102" type="qcurve" smooth="yes"/>
      <point x="393" y="102" type="line"/>
      <point x="393" y="424" type="line"/>
      <point x="227" y="424" type="line" smooth="yes"/>
      <point x="181" y="424"/>
      <point x="181" y="377" type="qcurve" smooth="yes"/>
    </contour>
  </outline>
</glyph>
<glyph name="k" format="2">
  <advance width="561"/>
  <unicode hex="006B"/>
  <outline>
    <contour>
      <point x="75" y="0" type="line"/>
      <point x="75" y="740" type="line"/>
      <point x="192" y="740" type="line"/>
      <point x="192" y="302" type="line"/>
      <point x="396" y="525" type="line"/>
      <point x="510" y="525" type="line"/>
      <point x="520" y="505" type="line"/>
      <point x="336" y="306" type="line"/>
      <point x="534" y="20" type="line"/>
      <point x="524" y="0" type="line"/>
      <point x="411" y="0" type="line"/>
      <point x="259" y="222" type="line"/>
      <point x="192" y="149" type="line"/>
      <point x="192" y="0" type="line"/>
    </contour>
  </outline>
</glyph>
<glyph name="l" format="2">
  <advance width="292"/>
  <unicode hex="006C"/>
  <outline>
    <contour>
      <point x="71" y="174" type="qcurve" smooth="yes"/>
      <point x="71" y="740" type="line"/>
      <point x="188" y="740" type="line"/>
      <point x="188" y="162" type="line" smooth="yes"/>
      <point x="188" y="98"/>
      <point x="254" y="92" type="qcurve"/>
      <point x="254" y="-9" type="line"/>
      <point x="71" y="-9"/>
    </contour>
  </outline>
</glyph>
<glyph name="o" format="2">
  <advance width="589"/>
  <unicode hex="006F"/>
  <outline>
    <contour>
      <point x="67" y="158" type="qcurve" smooth="yes"/>
      <point x="67" y="367" type="line" smooth="yes"/>
      <point x="67" y="525"/>
      <point x="225" y="525" type="qcurve" smooth="yes"/>
      <point x="365" y="525" type="line" smooth="yes"/>
      <point x="522" y="525"/>
      <point x="522" y="367" type="qcurve" smooth="yes"/>
      <point x="522" y="158" type="line" smooth="yes"/>
      <point x="522" y="0"/>
      <point x="365" y="0" type="qcurve" smooth="yes"/>
      <point x="225" y="0" type="line" smooth="yes"/>
      <point x="67" y="0"/>
    </contour>
    <contour>
      <point x="184" y="148" type="line" smooth="yes"/>
      <point x="184" y="102"/>
      <point x="230" y="102" type="qcurve" smooth="yes"/>
      <point x="359" y="102" type="line" smooth="yes"/>
      <point x="406" y="102"/>
      <point x="406" y="148" type="qcurve" smooth="yes"/>
      <point x="406" y="377" type="line" smooth="yes"/>
      <point x="406" y="424"/>
      <point x="359" y="424" type="qcurve" smooth="yes"/>
      <point x="230" y="424" type="line" smooth="yes"/>
      <point x="184" y="424"/>
      <point x="184" y="377" type="qcurve" smooth="yes"/>
    </contour>
  </outline>
</glyph>
<glyph name="s" format="2">
  <advance width="505"/>
  <unicode hex="0073"/>
  <outline>
    <contour>
      <point x="56" y="39" type="line"/>
      <point x="56" y="102" type="line"/>
      <point x="286" y="102" type="line" smooth="yes"/>
      <point x="334" y="102"/>
      <point x="334" y="151" type="qcurve" smooth="yes"/>
      <point x="334" y="202"/>
      <point x="292" y="209" type="qcurve" smooth="yes"/>
      <point x="180" y="227" type="line" smooth="yes"/>
      <point x="56" y="248"/>
      <point x="56" y="368" type="qcurve" smooth="yes"/>
      <point x="56" y="525"/>
      <point x="214" y="525" type="qcurve" smooth="yes"/>
      <point x="373" y="525" type="line"/>
      <point x="425" y="486" type="line"/>
      <point x="425" y="424" type="line"/>
      <point x="219" y="424" type="line" smooth="yes"/>
      <point x="172" y="424"/>
      <point x="172" y="374" type="qcurve" smooth="yes"/>
      <point x="172" y="327"/>
      <point x="213" y="320" type="qcurve" smooth="yes"/>
      <point x="326" y="301" type="line" smooth="yes"/>
      <point x="449" y="281"/>
      <point x="449" y="157" type="qcurve" smooth="yes"/>
      <point x="449" y="0"/>
      <point x="292" y="0" type="qcurve" smooth="yes"/>
      <point x="109" y="0" type="line"/>
    </contour>
  </outline>
</glyph>
<glyph name="t" format="2">
  <advance width="412"/>
  <unicode hex="0074"/>
  <outline>
    <contour>
      <point x="71" y="158" type="qcurve" smooth="yes"/>
      <point x="71" y="690" type="line"/>
      <point x="188" y="690" type="line"/>
      <point x="188" y="525" type="line"/>
      <point x="366" y="525" type="line"/>
      <point x="366" y="424" type="line"/>
      <point x="188" y="424" type="line"/>
      <point x="188" y="148" type="line" smooth="yes"/>
      <point x="188" y="102"/>
      <point x="234" y="102" type="qcurve" smooth="yes"/>
      <point x="376" y="102" type="line"/>
      <point x="376" y="39" type="line"/>
      <point x="324" y="0" type="line"/>
      <point x="229" y="0" type="line" smooth="yes"/>
      <point x="71" y="0"/>
    </contour>
  </outline>
</glyph>
<glyph name="v" format="2">
  <advance width="543"/>
  <unicode hex="0076"/>
  <outline>
    <contour>
      <point x="19" y="507" type="line"/>
      <point x="31" y="525" type="line"/>
      <point x="131" y="525" type="line"/>
      <point x="264" y="102" type="line"/>
      <point x="278" y="102" type="line"/>
      <point x="411" y="525" type="line"/>
      <point x="512" y="525" type="line"/>
      <point x="524" y="507" type="line"/>
      <point x="359" y="0" type="line"/>
      <point x="184" y="0" type="line"/>
    </contour>
  </outline>
</glyph>
<glyph name="w" format="2">
  <advance width="815"/>
  <unicode hex="0077"/>
  <outline>
    <contour>
      <point x="23" y="507" type="line"/>
      <point x="36" y="525" type="line"/>
      <point x="134" y="525" type="line"/>
      <point x="223" y="102" type="line"/>
      <point x="233" y="102" type="line"/>
      <point x="340" y="525" type="line"/>
      <point x="475" y="525" type="line"/>
      <point x="582" y="102" type="line"/>
      <point x="592" y="102" type="line"/>
      <point x="681" y="525" type="line"/>
      <point x="779" y="525" type="line"/>
      <point x="792" y="507" type="line"/>
      <point x="680" y="0" type="line"/>
      <point x="503" y="0" type="line"/>
      <point x="407" y="394" type="line"/>
      <point x="312" y="0" type="line"/>
      <point x="135" y="0" type="line"/>
    </contour>
  </outline>
</glyph>
<glyph name="braceleft" format="2">
  <advance width="405"/>
  <unicode hex="007B"/>
  <outline>
    <contour>
      <point x="50" y="258" type="line"/>
      <point x="50" y="316" type="line"/>
      <point x="134" y="399" type="line"/>
      <point x="134" y="602" type="line" smooth="yes"/>
      <point x="134" y="760"/>
      <point x="291" y="760" type="qcurve" smooth="yes"/>
      <point x="375" y="760" type="line"/>
      <point x="375" y="658" type="line"/>
      <point x="296" y="658" type="line" smooth="yes"/>
      <point x="250" y="658"/>
      <point x="250" y="612" type="qcurve" smooth="yes"/>
      <point x="250" y="372" type="line"/>
      <point x="165" y="287" type="line"/>
      <point x="250" y="202" type="line"/>
      <point x="250" y="-32" type="line" smooth="yes"/>
      <point x="250" y="-78"/>
      <point x="296" y="-78" type="qcurve" smooth="yes"/>
      <point x="375" y="-78" type="line"/>
      <point x="375" y="-180" type="line"/>
      <point x="291" y="-180" type="line" smooth="yes"/>
      <point x="134" y="-180"/>
      <point x="134" y="-22" type="qcurve" smooth="yes"/>
      <point x="134" y="174" type="line"/>
    </contour>
  </outline>
</glyph>
<glyph name="braceright" format="2">
  <advance width="405"/>
  <unicode hex="007D"/>
  <outline>
    <contour>
      <point x="30" y="-78" type="line"/>
      <point x="109" y="-78" type="line" smooth="yes"/>
      <point x="155" y="-78"/>
      <point x="155" y="-32" type="qcurve" smooth="yes"/>
      <point x="155" y="202" type="line"/>
      <point x="240" y="287" type="line"/>
      <point x="155" y="372" type="line"/>
      <point x="155" y="612" type="line" smooth="yes"/>
      <point x="155" y="658"/>
      <point x="109" y="658" type="qcurve" smooth="yes"/>
      <point x="30" y="658" type="line"/>
      <point x="30" y="760" type="line"/>
      <point x="114" y="760" type="line" smooth="yes"/>
      <point x="272" y="760"/>
      <point x="272" y="602" type="qcurve" smooth="yes"/>
      <point x="272" y="399" type="line"/>
      <point x="355" y="316" type="line"/>
      <point x="355" y="258" type="line"/>
      <point x="272" y="174" type="line"/>
      <point x="272" y="-22" type="line" smooth="yes"/>
      <point x="272" y="-180"/>
      <point x="114" y="-180" type="qcurve" smooth="yes"/>
      <point x="30" y="-180" type="line"/>
    </contour>
  </outline>
</glyph>
<glyph name="asciitilde" format="2">
  <advance width="578"/>
  <unicode hex="007E"/>
  <outline>
    <contour>
      <point x="38" y="316" type="line"/>
      <point x="130" y="407" type="line" smooth="yes"/>
      <point x="163" y="441"/>
      <point x="255" y="441"/>
      <point x="288" y="407" type="qcurve" smooth="yes"/>
      <point x="349" y="346" type="line" smooth="yes"/>
      <point x="359" y="336"/>
      <point x="379" y="336"/>
      <point x="389" y="346" type="qcurve" smooth="yes"/>
      <point x="468" y="426" type="line"/>
      <point x="540" y="354" type="line"/>
      <point x="448" y="263" type="line" smooth="yes"/>
      <point x="415" y="229"/>
      <point x="323" y="229"/>
      <point x="290" y="263" type="qcurve" smooth="yes"/>
      <point x="229" y="324" type="line" smooth="yes"/>
      <point x="219" y="334"/>
      <point x="199" y="334"/>
      <point x="189" y="324" type="qcurve" smooth="yes"/>
      <point x="110" y="244" type="line"/>
    </contour>
  </outline>
</glyph>
<glyph name="exclamdown" format="2">
  <advance width="271"/>
  <unicode hex="00A1"/>
  <outline>
    <contour>
      <point x="70" y="394" type="line"/>
      <point x="70" y="525" type="line"/>
      <point x="201" y="525" type="line"/>
      <point x="201" y="394" type="line"/>
    </contour>
    <contour>
      <point x="75" y="-165" type="line"/>
      <point x="75" y="307" type="line"/>
      <point x="197" y="307" type="line"/>
      <point x="197" y="-165" type="line"/>
    </contour>
  </outline>
</glyph>
<glyph name="cent" format="2">
  <advance width="578"/>
  <unicode hex="00A2"/>
  <outline>
    <contour>
      <point x="86" y="158" type="qcurve" smooth="yes"/>
      <point x="86" y="367" type="line" smooth="yes"/>
      <point x="86" y="525"/>
      <point x="244" y="525" type="qcurve" smooth="yes"/>
      <point x="268" y="525" type="line"/>
      <point x="268" y="635" type="line"/>
      <point x="364" y="635" type="line"/>
      <point x="364" y="525" type="line"/>
      <point x="434" y="525" type="line"/>
      <point x="486" y="486" type="line"/>
      <point x="486" y="424" type="line"/>
      <point x="249" y="424" type="line" smooth="yes"/>
      <point x="203" y="424"/>
      <point x="203" y="377" type="qcurve" smooth="yes"/>
      <point x="203" y="148" type="line" smooth="yes"/>
      <point x="203" y="102"/>
      <point x="249" y="102" type="qcurve" smooth="yes"/>
      <point x="486" y="102" type="line"/>
      <point x="486" y="39" type="line"/>
      <point x="434" y="0" type="line"/>
      <point x="364" y="0" type="line"/>
      <point x="364" y="-110" type="line"/>
      <point x="268" y="-110" type="line"/>
      <point x="268" y="0" type="line"/>
      <point x="244" y="0" type="line" smooth="yes"/>
      <point x="86" y="0"/>
    </contour>
  </outline>
</glyph>
<glyph name="sterling" format="2">
  <advance width="578"/>
  <unicode hex="00A3"/>
  <outline>
    <contour>
      <point x="58" y="0" type="line"/>
      <point x="58" y="110" type="line"/>
      <point x="146" y="110" type="line"/>
      <point x="146" y="297" type="line"/>
      <point x="58" y="297" type="line"/>
      <point x="58" y="393" type="line"/>
      <point x="146" y="393" type="line"/>
      <point x="146" y="528" type="line" smooth="yes"/>
      <point x="146" y="690"/>
      <point x="309" y="690" type="qcurve" smooth="yes"/>
      <point x="451" y="690" type="line"/>
      <point x="510" y="644" type="line"/>
      <point x="510" y="580" type="line"/>
      <point x="312" y="580" type="line" smooth="yes"/>
      <point x="268" y="580"/>
      <point x="268" y="536" type="qcurve" smooth="yes"/>
      <point x="268" y="393" type="line"/>
      <point x="424" y="393" type="line"/>
      <point x="424" y="297" type="line"/>
      <point x="268" y="297" type="line"/>
      <point x="268" y="110" type="line"/>
      <point x="530" y="110" type="line"/>
      <point x="530" y="0" type="line"/>
    </contour>
  </outline>
</glyph>
<glyph name="currency" format="2">
  <advance width="578"/>
  <unicode hex="00A4"/>
  <outline>
    <contour>
      <point x="49" y="166" type="line"/>
      <point x="130" y="248" type="line"/>
      <point x="130" y="452" type="line"/>
      <point x="49" y="534" type="line"/>
      <point x="110" y="595" type="line"/>
      <point x="192" y="514" type="line"/>
      <point x="386" y="514" type="line"/>
      <point x="468" y="595" type="line"/>
      <point x="529" y="534" type="line"/>
      <point x="448" y="452" type="line"/>
      <point x="448" y="248" type="line"/>
      <point x="529" y="166" type="line"/>
      <point x="468" y="105" type="line"/>
      <point x="386" y="186" type="line"/>
      <point x="192" y="186" type="line"/>
      <point x="110" y="105" type="line"/>
    </contour>
    <contour>
      <point x="222" y="292" type="line" smooth="yes"/>
      <point x="222" y="273"/>
      <point x="241" y="273" type="qcurve" smooth="yes"/>
      <point x="337" y="273" type="line" smooth="yes"/>
      <point x="356" y="273"/>
      <point x="356" y="292" type="qcurve" smooth="yes"/>
      <point x="356" y="408" type="line" smooth="yes"/>
      <point x="356" y="427"/>
      <point x="337" y="427" type="qcurve" smooth="yes"/>
      <point x="241" y="427" type="line" smooth="yes"/>
      <point x="222" y="427"/>
      <point x="222" y="408" type="qcurve" smooth="yes"/>
    </contour>
  </outline>
</glyph>
<glyph name="copyright" format="2">
  <advance width="843"/>
  <unicode hex="00A9"/>
  <outline>
    <contour>
      <point x="75" y="109" type="qcurve" smooth="yes"/>
      <point x="75" y="581" type="line" smooth="yes"/>
      <point x="75" y="690"/>
      <point x="184" y="690" type="qcurve" smooth="yes"/>
      <point x="658" y="690" type="line" smooth="yes"/>
      <point x="768" y="690"/>
      <point x="768" y="581" type="qcurve" smooth="yes"/>
      <point x="768" y="109" type="line" smooth="yes"/>
      <point x="768" y="0"/>
      <point x="658" y="0" type="qcurve" smooth="yes"/>
      <point x="184" y="0" type="line" smooth="yes"/>
      <point x="75" y="0"/>
    </contour>
    <contour>
      <point x="161" y="97" type="line" smooth="yes"/>
      <point x="161" y="78"/>
      <point x="181" y="78" type="qcurve" smooth="yes"/>
      <point x="662" y="78" type="line" smooth="yes"/>
      <point x="681" y="78"/>
      <point x="681" y="97" type="qcurve" smooth="yes"/>
      <point x="681" y="593" type="line" smooth="yes"/>
      <point x="681" y="612"/>
      <point x="662" y="612" type="qcurve" smooth="yes"/>
      <point x="181" y="612" type="line" smooth="yes"/>
      <point x="161" y="612"/>
      <point x="161" y="593" type="qcurve" smooth="yes"/>
    </contour>
    <contour>
      <point x="258" y="269" type="qcurve" smooth="yes"/>
      <point x="258" y="421" type="line" smooth="yes"/>
      <point x="258" y="535"/>
      <point x="372" y="535" type="qcurve" smooth="yes"/>
      <point x="513" y="535" type="line"/>
      <point x="554" y="502" type="line"/>
      <point x="554" y="452" type="line"/>
      <point x="369" y="452" type="line" smooth="yes"/>
      <point x="350" y="452"/>
      <point x="350" y="432" type="qcurve" smooth="yes"/>
      <point x="350" y="258" type="line" smooth="yes"/>
      <point x="350" y="238"/>
      <point x="369" y="238" type="qcurve" smooth="yes"/>
      <point x="554" y="238" type="line"/>
      <point x="554" y="188" type="line"/>
      <point x="513" y="155" type="line"/>
      <point x="372" y="155" type="line" smooth="yes"/>
      <point x="258" y="155"/>
    </contour>
  </outline>
</glyph>
<glyph name="ordfeminine" format="2">
  <advance width="403"/>
  <unicode hex="00AA"/>
  <outline>
    <contour>
      <point x="36" y="411" type="qcurve" smooth="yes"/>
      <point x="36" y="421" type="line" smooth="yes"/>
      <point x="36" y="535"/>
      <point x="150" y="535" type="qcurve" smooth="yes"/>
      <point x="265" y="535" type="line"/>
      <point x="265" y="587" type="line" smooth="yes"/>
      <point x="265" y="607"/>
      <point x="245" y="607" type="qcurve" smooth="yes"/>
      <point x="71" y="607" type="line"/>
      <point x="71" y="657" type="line"/>
      <point x="113" y="690" type="line"/>
      <point x="242" y="690" type="line" smooth="yes"/>
      <point x="356" y="690"/>
      <point x="356" y="576" type="qcurve" smooth="yes"/>
      <point x="356" y="297" type="line"/>
      <point x="150" y="297" type="line" smooth="yes"/>
      <point x="36" y="297"/>
    </contour>
    <contour>
      <point x="128" y="400" type="line" smooth="yes"/>
      <point x="128" y="381"/>
      <point x="147" y="381" type="qcurve" smooth="yes"/>
      <point x="265" y="381" type="line"/>
      <point x="265" y="458" type="line"/>
      <point x="147" y="458" type="line" smooth="yes"/>
      <point x="128" y="458"/>
      <point x="128" y="439" type="qcurve" smooth="yes"/>
    </contour>
  </outline>
</glyph>
<glyph name="degree" format="2">
  <advance width="411"/>
  <unicode hex="00B0"/>
  <outline>
    <contour>
      <point x="55" y="479" type="qcurve" smooth="yes"/>
      <point x="55" y="581" type="line" smooth="yes"/>
      <point x="55" y="690"/>
      <point x="164" y="690" type="qcurve" smooth="yes"/>
      <point x="247" y="690" type="line" smooth="yes"/>
      <point x="356" y="690"/>
      <point x="356" y="581" type="qcurve" smooth="yes"/>
      <point x="356" y="479" type="line" smooth="yes"/>
      <point x="356" y="370"/>
      <point x="247" y="370" type="qcurve" smooth="yes"/>
      <point x="164" y="370" type="line" smooth="yes"/>
      <point x="55" y="370"/>
    </contour>
    <contour>
      <point x="141" y="467" type="line" smooth="yes"/>
      <point x="141" y="448"/>
      <point x="161" y="448" type="qcurve" smooth="yes"/>
      <point x="250" y="448" type="line" smooth="yes"/>
      <point x="270" y="448"/>
      <point x="270" y="467" type="qcurve" smooth="yes"/>
      <point x="270" y="593" type="line" smooth="yes"/>
      <point x="270" y="612"/>
      <point x="250" y="612" type="qcurve" smooth="yes"/>
      <point x="161" y="612" type="line" smooth="yes"/>
      <point x="141" y="612"/>
      <point x="141" y="593" type="qcurve" smooth="yes"/>
    </contour>
  </outline>
</glyph>
<glyph name="uni00B2" format="2">
  <advance width="364"/>
  <unicode hex="00B2"/>
  <outline>
    <contour>
      <point x="36" y="276" type="line"/>
      <point x="36" y="406" type="line" smooth="yes"/>
      <point x="36" y="493"/>
      <point x="121" y="510" type="qcurve" smooth="yes"/>
      <point x="215" y="529" type="line" smooth="yes"/>
      <point x="236" y="533"/>
      <point x="236" y="554" type="qcurve" smooth="yes"/>
      <point x="236" y="587" type="line" smooth="yes"/>
      <point x="236" y="607"/>
      <point x="216" y="607" type="qcurve" smooth="yes"/>
      <point x="48" y="607" type="line"/>
      <point x="48" y="657" type="line"/>
      <point x="90" y="690" type="line"/>
      <point x="214" y="690" type="line" smooth="yes"/>
      <point x="328" y="690"/>
      <point x="328" y="576" type="qcurve" smooth="yes"/>
      <point x="328" y="553" type="line" smooth="yes"/>
      <point x="328" y="465"/>
      <point x="243" y="448" type="qcurve" smooth="yes"/>
      <point x="149" y="429" type="line" smooth="yes"/>
      <point x="128" y="425"/>
      <point x="128" y="405" type="qcurve" smooth="yes"/>
      <point x="128" y="359" type="line"/>
      <point x="328" y="359" type="line"/>
      <point x="328" y="276" type="line"/>
    </contour>
  </outline>
</glyph>
<glyph name="uni00B9" format="2">
  <advance width="364"/>
  <unicode hex="00B9"/>
  <outline>
    <contour>
      <point x="54" y="276" type="line"/>
      <point x="54" y="359" type="line"/>
      <point x="147" y="359" type="line"/>
      <point x="147" y="607" type="line"/>
      <point x="71" y="607" type="line"/>
      <point x="71" y="657" type="line"/>
      <point x="113" y="690" type="line"/>
      <point x="239" y="690" type="line"/>
      <point x="239" y="359" type="line"/>
      <point x="322" y="359" type="line"/>
      <point x="322" y="276" type="line"/>
    </contour>
  </outline>
</glyph>
<glyph name="ordmasculine" format="2">
  <advance width="433"/>
  <unicode hex="00BA"/>
  <outline>
    <contour>
      <point x="46" y="411" type="qcurve" smooth="yes"/>
      <point x="46" y="576" type="line" smooth="yes"/>
      <point x="46" y="690"/>
      <point x="160" y="690" type="qcurve" smooth="yes"/>
      <point x="272" y="690" type="line" smooth="yes"/>
      <point x="386" y="690"/>
      <point x="386" y="576" type="qcurve" smooth="yes"/>
      <point x="386" y="411" type="line" smooth="yes"/>
      <point x="386" y="297"/>
      <point x="272" y="297" type="qcurve" smooth="yes"/>
      <point x="160" y="297" type="line" smooth="yes"/>
      <point x="46" y="297"/>
    </contour>
    <contour>
      <point x="138" y="400" type="line" smooth="yes"/>
      <point x="138" y="381"/>
      <point x="157" y="381" type="qcurve" smooth="yes"/>
      <point x="275" y="381" type="line" smooth="yes"/>
      <point x="295" y="381"/>
      <point x="295" y="400" type="qcurve" smooth="yes"/>
      <point x="295" y="587" type="line" smooth="yes"/>
      <point x="295" y="607"/>
      <point x="275" y="607" type="qcurve" smooth="yes"/>
      <point x="157" y="607" type="line" smooth="yes"/>
      <point x="138" y="607"/>
      <point x="138" y="587" type="qcurve" smooth="yes"/>
    </contour>
  </outline>
</glyph>
<glyph name="eth" format="2">
  <advance width="589"/>
  <unicode hex="00F0"/>
  <outline>
    <contour>
      <point x="67" y="158" type="qcurve" smooth="yes"/>
      <point x="67" y="292" type="line" smooth="yes"/>
      <point x="67" y="450"/>
      <point x="225" y="450" type="qcurve" smooth="yes"/>
      <point x="384" y="450" type="line"/>
      <point x="318" y="553" type="line"/>
      <point x="209" y="501" type="line"/>
      <point x="172" y="582" type="line"/>
      <point x="271" y="630" type="line"/>
      <point x="226" y="700" type="line"/>
      <point x="318" y="759" type="line"/>
      <point x="370" y="677" type="line"/>
      <point x="465" y="722" type="line"/>
      <point x="502" y="641" type="line"/>
      <point x="418" y="602" type="line"/>
      <point x="485" y="495" type="line" smooth="yes"/>
      <point x="522" y="436"/>
      <point x="522" y="376" type="qcurve" smooth="yes"/>
      <point x="522" y="158" type="line" smooth="yes"/>
      <point x="522" y="0"/>
      <point x="365" y="0" type="qcurve" smooth="yes"/>
      <point x="225" y="0" type="line" smooth="yes"/>
      <point x="67" y="0"/>
    </contour>
    <contour>
      <point x="184" y="148" type="line" smooth="yes"/>
      <point x="184" y="102"/>
      <point x="230" y="102" type="qcurve" smooth="yes"/>
      <point x="359" y="102" type="line" smooth="yes"/>
      <point x="406" y="102"/>
      <point x="406" y="148" type="qcurve" smooth="yes"/>
      <point x="406" y="348" type="line"/>
      <point x="230" y="348" type="line" smooth="yes"/>
      <point x="184" y="348"/>
      <point x="184" y="302" type="qcurve" smooth="yes"/>
    </contour>
  </outline>
</glyph>
<glyph name="Lslash" format="2">
  <advance width="565"/>
  <unicode hex="0141"/>
  <outline>
    <contour>
      <point x="10" y="295" type="line"/>
      <point x="107" y="351" type="line"/>
      <point x="107" y="690" type="line"/>
      <point x="229" y="690" type="line"/>
      <point x="229" y="421" type="line"/>
      <point x="352" y="492" type="line"/>
      <point x="399" y="410" type="line"/>
      <point x="229" y="312" type="line"/>
      <point x="229" y="110" type="line"/>
      <point x="541" y="110" type="line"/>
      <point x="541" y="0" type="line"/>
      <point x="107" y="0" type="line"/>
      <point x="107" y="241" type="line"/>
      <point x="57" y="213" type="line"/>
    </contour>
  </outline>
</glyph>
<glyph name="OE" format="2">
  <advance width="971"/>
  <unicode hex="0152"/>
  <outline>
    <contour>
      <point x="75" y="162" type="qcurve" smooth="yes"/>
      <point x="75" y="528" type="line" smooth="yes"/>
      <point x="75" y="690"/>
      <point x="237" y="690" type="qcurve" smooth="yes"/>
      <point x="921" y="690" type="line"/>
      <point x="921" y="580" type="line"/>
      <point x="597" y="580" type="line"/>
      <point x="597" y="413" type="line"/>
      <point x="891" y="413" type="line"/>
      <point x="891" y="303" type="line"/>
      <point x="597" y="303" type="line"/>
      <point x="597" y="110" type="line"/>
      <point x="921" y="110" type="line"/>
      <point x="921" y="0" type="line"/>
      <point x="237" y="0" type="line" smooth="yes"/>
      <point x="75" y="0"/>
    </contour>
    <contour>
      <point x="197" y="154" type="line" smooth="yes"/>
      <point x="197" y="110"/>
      <point x="241" y="110" type="qcurve" smooth="yes"/>
      <point x="476" y="110" type="line"/>
      <point x="476" y="580" type="line"/>
      <point x="241" y="580" type="line" smooth="yes"/>
      <point x="197" y="580"/>
      <point x="197" y="536" type="qcurve" smooth="yes"/>
    </contour>
  </outline>
</glyph>
<glyph name="oe" format="2">
  <advance width="910"/>
  <unicode hex="0153"/>
  <outline>
    <contour>
      <point x="67" y="158" type="qcurve" smooth="yes"/>
      <point x="67" y="367" type="line" smooth="yes"/>
      <point x="67" y="525"/>
      <point x="225" y="525" type="qcurve" smooth="yes"/>
      <point x="350" y="525" type="line" smooth="yes"/>
      <point x="420" y="525"/>
      <point x="460" y="485" type="qcurve"/>
      <point x="500" y="525"/>
      <point x="570" y="525" type="qcurve" smooth="yes"/>
      <point x="686" y="525" type="line" smooth="yes"/>
      <point x="843" y="525"/>
      <point x="843" y="367" type="qcurve" smooth="yes"/>
      <point x="843" y="217" type="line"/>
      <point x="518" y="217" type="line"/>
      <point x="518" y="148" type="line" smooth="yes"/>
      <point x="518" y="102"/>
      <point x="564" y="102" type="qcurve" smooth="yes"/>
      <point x="823" y="102" type="line"/>
      <point x="823" y="39" type="line"/>
      <point x="771" y="0" type="line"/>
      <point x="570" y="0" type="line" smooth="yes"/>
      <point x="500" y="0"/>
      <point x="460" y="40" type="qcurve"/>
      <point x="420" y="0"/>
      <point x="350" y="0" type="qcurve" smooth="yes"/>
      <point x="225" y="0" type="line" smooth="yes"/>
      <point x="67" y="0"/>
    </contour>
    <contour>
      <point x="184" y="148" type="line" smooth="yes"/>
      <point x="184" y="102"/>
      <point x="230" y="102" type="qcurve" smooth="yes"/>
      <point x="356" y="102" type="line" smooth="yes"/>
      <point x="402" y="102"/>
      <point x="402" y="148" type="qcurve" smooth="yes"/>
      <point x="402" y="377" type="line" smooth="yes"/>
      <point x="402" y="424"/>
      <point x="356" y="424" type="qcurve" smooth="yes"/>
      <point x="230" y="424" type="line" smooth="yes"/>
      <point x="184" y="424"/>
      <point x="184" y="377" type="qcurve" smooth="yes"/>
    </contour>
    <contour>
      <point x="518" y="311" type="line"/>
      <point x="727" y="311" type="line"/>
      <point x="727" y="377" type="line" smooth="yes"/>
      <point x="727" y="424"/>
      <point x="681" y="424" type="qcurve" smooth="yes"/>
      <point x="564" y="424" type="line" smooth="yes"/>
      <point x="518" y="424"/>
      <point x="518" y="377" type="qcurve" smooth="yes"/>
    </contour>
  </outline>
</glyph>
<glyph name="uni0237" format="2">
  <advance width="266"/>
  <unicode hex="0237"/>
  <outline>
    <contour>
      <point x="-9" y="-110" type="line"/>
      <point x="75" y="-104"/>
      <point x="75" y="-22" type="qcurve" smooth="yes"/>
      <point x="75" y="525" type="line"/>
      <point x="192" y="525" type="line"/>
      <point x="192" y="-8" type="line" smooth="yes"/>
      <point x="192" y="-209"/>
      <point x="-9" y="-209" type="qcurve"/>
    </contour>
  </outline>
</glyph>
<glyph name="uni0300" format="2">
  <advance width="0"/>
  <unicode hex="0300"/>
  <outline>
    <contour>
      <point x="-413" y="718" type="line"/>
      <point x="-346" y="782" type="line"/>
      <point x="-212" y="629" type="line"/>
      <point x="-270" y="575" type="line"/>
    </contour>
  </outline>
</glyph>
<glyph name="uni0301" format="2">
  <advance width="0"/>
  <unicode hex="0301"/>
  <outline>
    <contour>
      <point x="-365" y="629" type="line"/>
      <point x="-231" y="782" type="line"/>
      <point x="-164" y="718" type="line"/>
      <point x="-308" y="575" type="line"/>
    </contour>
  </outline>
</glyph>
<glyph name="uni0302" format="2">
  <advance width="0"/>
  <unicode hex="0302"/>
  <outline>
    <contour>
      <point x="-438" y="635" type="line"/>
      <point x="-289" y="782" type="line"/>
      <point x="-139" y="635" type="line"/>
      <point x="-190" y="581" type="line"/>
      <point x="-289" y="674" type="line"/>
      <point x="-387" y="581" type="line"/>
    </contour>
  </outline>
</glyph>
<glyph name="uni0307" format="2">
  <advance width="0"/>
  <unicode hex="0307"/>
  <outline>
    <contour>
      <point x="-349" y="614" type="line"/>
      <point x="-349" y="732" type="line"/>
      <point x="-228" y="732" type="line"/>
      <point x="-228" y="614" type="line"/>
    </contour>
  </outline>
</glyph>
<glyph name="uni030B" format="2">
  <advance width="0"/>
  <unicode hex="030B"/>
  <outline>
    <contour>
      <point x="-439" y="623" type="line"/>
      <point x="-325" y="782" type="line"/>
      <point x="-254" y="727" type="line"/>
      <point x="-379" y="575" type="line"/>
    </contour>
    <contour>
      <point x="-262" y="623" type="line"/>
      <point x="-147" y="782" type="line"/>
      <point x="-76" y="727" type="line"/>
      <point x="-201" y="575" type="line"/>
    </contour>
  </outline>
</glyph>
<glyph name="uni0326" format="2">
  <advance width="0"/>
  <unicode hex="0326"/>
  <outline>
    <contour>
      <point x="-370" y="-181" type="line"/>
      <point x="-339" y="-50" type="line"/>
      <point x="-247" y="-50" type="line"/>
      <point x="-235" y="-68" type="line"/>
      <point x="-291" y="-203" type="line"/>
    </contour>
  </outline>
</glyph>
<glyph name="uni0327" format="2">
  <advance width="0"/>
  <unicode hex="0327"/>
  <outline>
    <contour>
      <point x="-400" y="-102" type="line"/>
      <point x="-299" y="-102" type="line" smooth="yes"/>
      <point x="-279" y="-102"/>
      <point x="-279" y="-82" type="qcurve" smooth="yes"/>
      <point x="-279" y="51" type="line"/>
      <point x="-189" y="51" type="line"/>
      <point x="-189" y="-70" type="line" smooth="yes"/>
      <point x="-189" y="-184"/>
      <point x="-303" y="-184" type="qcurve" smooth="yes"/>
      <point x="-358" y="-184" type="line"/>
      <point x="-400" y="-151" type="line"/>
    </contour>
  </outline>
</glyph>
<glyph name="uni0328" format="2">
  <advance width="0"/>
  <unicode hex="0328"/>
  <outline>
    <contour>
      <point x="-376" y="-32" type="line" smooth="yes"/>
      <point x="-376" y="82"/>
      <point x="-262" y="82" type="qcurve" smooth="yes"/>
      <point x="-241" y="82" type="line"/>
      <point x="-241" y="0" type="line"/>
      <point x="-266" y="0" type="line" smooth="yes"/>
      <point x="-286" y="0"/>
      <point x="-286" y="-20" type="qcurve" smooth="yes"/>
      <point x="-286" y="-82" type="line" smooth="yes"/>
      <point x="-286" y="-102"/>
      <point x="-266" y="-102" type="qcurve" smooth="yes"/>
      <point x="-169" y="-102" type="line"/>
      <point x="-169" y="-151" type="line"/>
      <point x="-211" y="-184" type="line"/>
      <point x="-262" y="-184" type="line" smooth="yes"/>
      <point x="-376" y="-184"/>
      <point x="-376" y="-70" type="qcurve" smooth="yes"/>
    </contour>
  </outline>
</glyph>
<glyph name="uni1E9E" format="2">
  <advance width="695"/>
  <unicode hex="1E9E"/>
  <outline>
    <contour>
      <point x="79" y="0" type="line"/>
      <point x="79" y="528" type="line" smooth="yes"/>
      <point x="79" y="690"/>
      <point x="241" y="690" type="qcurve" smooth="yes"/>
      <point x="574" y="690" type="line"/>
      <point x="574" y="595" type="line"/>
      <point x="441" y="413" type="line"/>
      <point x="478" y="413" type="line" smooth="yes"/>
      <point x="640" y="413"/>
      <point x="640" y="250" type="qcurve" smooth="yes"/>
      <point x="640" y="162" type="line" smooth="yes"/>
      <point x="640" y="0"/>
      <point x="478" y="0" type="qcurve" smooth="yes"/>
      <point x="342" y="0" type="line"/>
      <point x="283" y="46" type="line"/>
      <point x="283" y="110" type="line"/>
      <point x="475" y="110" type="line" smooth="yes"/>
      <point x="519" y="110"/>
      <point x="519" y="154" type="qcurve" smooth="yes"/>
      <point x="519" y="259" type="line" smooth="yes"/>
      <point x="519" y="303"/>
      <point x="475" y="303" type="qcurve" smooth="yes"/>
      <point x="297" y="303" type="line"/>
      <point x="297" y="398" type="line"/>
      <point x="430" y="580" type="line"/>
      <point x="245" y="580" type="line" smooth="yes"/>
      <point x="201" y="580"/>
      <point x="201" y="536" type="qcurve" smooth="yes"/>
      <point x="201" y="0" type="line"/>
    </contour>
  </outline>
</glyph>
<glyph name="endash" format="2">
  <advance width="580"/>
  <unicode hex="2013"/>
  <outline>
    <contour>
      <point x="40" y="255" type="line"/>
      <point x="40" y="355" type="line"/>
      <point x="540" y="355" type="line"/>
      <point x="540" y="255" type="line"/>
    </contour>
  </outline>
</glyph>
<glyph name="quoteleft" format="2">
  <advance width="271"/>
  <unicode hex="2018"/>
  <outline>
    <contour>
      <point x="45" y="497" type="line"/>
      <point x="144" y="756" type="line"/>
      <point x="230" y="734" type="line"/>
      <point x="165" y="479" type="line"/>
      <point x="57" y="479" type="line"/>
    </contour>
  </outline>
</glyph>
<glyph name="quoteright" format="2">
  <advance width="271"/>
  <unicode hex="2019"/>
  <outline>
    <contour>
      <point x="41" y="484" type="line"/>
      <point x="106" y="740" type="line"/>
      <point x="214" y="740" type="line"/>
      <point x="226" y="722" type="line"/>
      <point x="127" y="462" type="line"/>
    </contour>
  </outline>
</glyph>
<glyph name="quotesinglbase" format="2">
  <advance width="271"/>
  <unicode hex="201A"/>
  <outline>
    <contour>
      <point x="26" y="-124" type="line"/>
      <point x="91" y="131" type="line"/>
      <point x="199" y="131" type="line"/>
      <point x="211" y="113" type="line"/>
      <point x="112" y="-146" type="line"/>
    </contour>
  </outline>
</glyph>
<glyph name="dagger" format="2">
  <advance width="495"/>
  <unicode hex="2020"/>
  <outline>
    <contour>
      <point x="50" y="405" type="line"/>
      <point x="50" y="505" type="line"/>
      <point x="195" y="505" type="line"/>
      <point x="195" y="690" type="line"/>
      <point x="300" y="690" type="line"/>
      <point x="300" y="505" type="line"/>
      <point x="445" y="505" type="line"/>
      <point x="445" y="405" type="line"/>
      <point x="300" y="405" type="line"/>
      <point x="300" y="-100" type="line"/>
      <point x="195" y="-100" type="line"/>
      <point x="195" y="405" type="line"/>
    </contour>
  </outline>
</glyph>
<glyph name="uni2070" format="2">
  <advance width="364"/>
  <unicode hex="2070"/>
  <outline>
    <contour>
      <point x="36" y="390" type="qcurve" smooth="yes"/>
      <point x="36" y="576" type="line" smooth="yes"/>
      <point x="36" y="690"/>
      <point x="150" y="690" type="qcurve" smooth="yes"/>
      <point x="214" y="690" type="line" smooth="yes"/>
      <point x="328" y="690"/>
      <point x="328" y="576" type="qcurve" smooth="yes"/>
      <point x="328" y="390" type="line" smooth="yes"/>
      <point x="328" y="276"/>
      <point x="214" y="276" type="qcurve" smooth="yes"/>
      <point x="150" y="276" type="line" smooth="yes"/>
      <point x="36" y="276"/>
    </contour>
    <contour>
      <point x="128" y="379" type="line" smooth="yes"/>
      <point x="128" y="359"/>
      <point x="147" y="359" type="qcurve" smooth="yes"/>
      <point x="216" y="359" type="line" smooth="yes"/>
      <point x="236" y="359"/>
      <point x="236" y="379" type="qcurve" smooth="yes"/>
      <point x="236" y="587" type="line" smooth="yes"/>
      <point x="236" y="607"/>
      <point x="216" y="607" type="qcurve" smooth="yes"/>
      <point x="147" y="607" type="line" smooth="yes"/>
      <point x="128" y="607"/>
      <point x="128" y="587" type="qcurve" smooth="yes"/>
    </contour>
  </outline>
</glyph>
<glyph name="uni2074" format="2">
  <advance width="364"/>
  <unicode hex="2074"/>
  <outline>
    <contour>
      <point x="36" y="336" type="line"/>
      <point x="36" y="412" type="line"/>
      <point x="162" y="690" type="line"/>
      <point x="243" y="690" type="line"/>
      <point x="254" y="672" type="line"/>
      <point x="138" y="419" type="line"/>
      <point x="236" y="419" type="line"/>
      <point x="236" y="530" type="line"/>
      <point x="328" y="530" type="line"/>
      <point x="328" y="276" type="line"/>
      <point x="236" y="276" type="line"/>
      <point x="236" y="336" type="line"/>
    </contour>
  </outline>
</glyph>
<glyph name="uni20BD" format="2">
  <advance width="578"/>
  <unicode hex="20BD"/>
  <outline>
    <contour>
      <point x="36" y="134" type="line"/>
      <point x="36" y="231" type="line"/>
      <point x="86" y="231" type="line"/>
      <point x="86" y="294" type="line"/>
      <point x="36" y="294" type="line"/>
      <point x="36" y="396" type="line"/>
      <point x="86" y="396" type="line"/>
      <point x="86" y="690" type="line"/>
      <point x="369" y="690" type="line" smooth="yes"/>
      <point x="532" y="690"/>
      <point x="532" y="528" type="qcurve" smooth="yes"/>
      <point x="532" y="457" type="line" smooth="yes"/>
      <point x="532" y="294"/>
      <point x="369" y="294" type="qcurve" smooth="yes"/>
      <point x="208" y="294" type="line"/>
      <point x="208" y="231" type="line"/>
      <point x="406" y="231" type="line"/>
      <point x="406" y="134" type="line"/>
      <point x="208" y="134" type="line"/>
      <point x="208" y="0" type="line"/>
      <point x="86" y="0" type="line"/>
      <point x="86" y="134" type="line"/>
    </contour>
    <contour>
      <point x="208" y="396" type="line"/>
      <point x="366" y="396" type="line" smooth="yes"/>
      <point x="410" y="396"/>
      <point x="410" y="440" type="qcurve" smooth="yes"/>
      <point x="410" y="536" type="line" smooth="yes"/>
      <point x="410" y="580"/>
      <point x="366" y="580" type="qcurve" smooth="yes"/>
      <point x="208" y="580" type="line"/>
    </contour>
  </outline>
</glyph>
<glyph name="partialdiff" format="2">
  <advance width="583"/>
  <unicode hex="2202"/>
  <outline>
    <contour>
      <point x="67" y="158" type="qcurve" smooth="yes"/>
      <point x="67" y="315" type="line" smooth="yes"/>
      <point x="67" y="473"/>
      <point x="225" y="473" type="qcurve" smooth="yes"/>
      <point x="396" y="473" type="line"/>
      <point x="396" y="515" type="line" smooth="yes"/>
      <point x="396" y="638"/>
      <point x="272" y="638" type="qcurve" smooth="yes"/>
      <point x="111" y="638" type="line"/>
      <point x="111" y="701" type="line"/>
      <point x="164" y="740" type="line"/>
      <point x="269" y="740" type="line" smooth="yes"/>
      <point x="512" y="740"/>
      <point x="512" y="497" type="qcurve" smooth="yes"/>
      <point x="512" y="158" type="line" smooth="yes"/>
      <point x="512" y="0"/>
      <point x="355" y="0" type="qcurve" smooth="yes"/>
      <point x="225" y="0" type="line" smooth="yes"/>
      <point x="67" y="0"/>
    </contour>
    <contour>
      <point x="184" y="148" type="line" smooth="yes"/>
      <point x="184" y="102"/>
      <point x="230" y="102" type="qcurve" smooth="yes"/>
      <point x="349" y="102" type="line" smooth="yes"/>
      <point x="396" y="102"/>
      <point x="396" y="148" type="qcurve" smooth="yes"/>
      <point x="396" y="371" type="line"/>
      <point x="230" y="371" type="line" smooth="yes"/>
      <point x="184" y="371"/>
      <point x="184" y="325" type="qcurve" smooth="yes"/>
    </contour>
  </outline>
</glyph>
<glyph name="summation" format="2">
  <advance width="593"/>
  <unicode hex="2211"/>
  <outline>
    <contour>
      <point x="50" y="-5" type="line"/>
      <point x="260" y="295" type="line"/>
      <point x="50" y="595" type="line"/>
      <point x="50" y="690" type="line"/>
      <point x="543" y="690" type="line"/>
      <point x="543" y="580" type="line"/>
      <point x="198" y="580" type="line"/>
      <point x="398" y="295" type="line"/>
      <point x="198" y="10" type="line"/>
      <point x="543" y="10" type="line"/>
      <point x="543" y="-100" type="line"/>
      <point x="50" y="-100" type="line"/>
    </contour>
  </outline>
</glyph>
<glyph name="infinity" format="2">
  <advance width="613"/>
  <unicode hex="221E"/>
  <outline>
    <contour>
      <point x="35" y="293" type="qcurve" smooth="yes"/>
      <point x="35" y="377" type="line" smooth="yes"/>
      <point x="35" y="491"/>
      <point x="149" y="491" type="qcurve" smooth="yes"/>
      <point x="234" y="491" type="line" smooth="yes"/>
      <point x="272" y="491"/>
      <point x="306" y="457" type="qcurve"/>
      <point x="340" y="491"/>
      <point x="378" y="491" type="qcurve" smooth="yes"/>
      <point x="464" y="491" type="line" smooth="yes"/>
      <point x="578" y="491"/>
      <point x="578" y="377" type="qcurve" smooth="yes"/>
      <point x="578" y="293" type="line" smooth="yes"/>
      <point x="578" y="179"/>
      <point x="464" y="179" type="qcurve" smooth="yes"/>
      <point x="378" y="179" type="line" smooth="yes"/>
      <point x="340" y="179"/>
      <point x="306" y="213" type="qcurve"/>
      <point x="272" y="179"/>
      <point x="234" y="179" type="qcurve" smooth="yes"/>
      <point x="149" y="179" type="line" smooth="yes"/>
      <point x="35" y="179"/>
    </contour>
    <contour>
      <point x="127" y="281" type="line" smooth="yes"/>
      <point x="127" y="262"/>
      <point x="146" y="262" type="qcurve" smooth="yes"/>
      <point x="241" y="262" type="line" smooth="yes"/>
      <point x="260" y="262"/>
      <point x="260" y="281" type="qcurve" smooth="yes"/>
      <point x="260" y="389" type="line" smooth="yes"/>
      <point x="260" y="408"/>
      <point x="241" y="408" type="qcurve" smooth="yes"/>
      <point x="146" y="408" type="line" smooth="yes"/>
      <point x="127" y="408"/>
      <point x="127" y="389" type="qcurve" smooth="yes"/>
    </contour>
    <contour>
      <point x="352" y="281" type="line" smooth="yes"/>
      <point x="352" y="262"/>
      <point x="372" y="262" type="qcurve" smooth="yes"/>
      <point x="466" y="262" type="line" smooth="yes"/>
      <point x="486" y="262"/>
      <point x="486" y="281" type="qcurve" smooth="yes"/>
      <point x="486" y="389" type="line" smooth="yes"/>
      <point x="486" y="408"/>
      <point x="466" y="408" type="qcurve" smooth="yes"/>
      <point x="372" y="408" type="line" smooth="yes"/>
      <point x="352" y="408"/>
      <point x="352" y="389" type="qcurve" smooth="yes"/>
    </contour>
  </outline>
</glyph>
<glyph name="lessequal" format="2">
  <advance width="578"/>
  <unicode hex="2264"/>
  <outline>
    <contour>
      <point x="61" y="0" type="line"/>
      <point x="61" y="100" type="line"/>
      <point x="517" y="100" type="line"/>
      <point x="517" y="0" type="line"/>
    </contour>
    <contour>
      <point x="64" y="334" type="line"/>
      <point x="64" y="444" type="line"/>
      <point x="478" y="642" type="line"/>
      <point x="520" y="553" type="line"/>
      <point x="171" y="389" type="line"/>
      <point x="520" y="225" type="line"/>
      <point x="478" y="136" type="line"/>
    </contour>
  </outline>
</glyph>
<glyph name="greaterequal" format="2">
  <advance width="578"/>
  <unicode hex="2265"/>
  <outline>
    <contour>
      <point x="61" y="0" type="line"/>
      <point x="61" y="100" type="line"/>
      <point x="517" y="100" type="line"/>
      <point x="517" y="0" type="line"/>
    </contour>
    <contour>
      <point x="58" y="225" type="line"/>
      <point x="407" y="389" type="line"/>
      <point x="58" y="553" type="line"/>
      <point x="100" y="642" type="line"/>
      <point x="514" y="444" type="line"/>
      <point x="514" y="334" type="line"/>
      <point x="100" y="136" type="line"/>
    </contour>
  </outline>
</glyph>
<glyph name="lozenge" format="2">
  <advance width="578"/>
  <unicode hex="25CA"/>
  <outline>
    <contour>
      <point x="38" y="345" type="line"/>
      <point x="236" y="690" type="line"/>
      <point x="342" y="690" type="line"/>
      <point x="540" y="345" type="line"/>
      <point x="342" y="0" type="line"/>
      <point x="236" y="0" type="line"/>
    </contour>
    <contour>
      <point x="144" y="345" type="line"/>
      <point x="289" y="92" type="line"/>
      <point x="434" y="345" type="line"/>
      <point x="289" y="598" type="line"/>
    </contour>
  </outline>
</glyph>
<glyph name="uni0300.cap" format="2">
  <advance width="0"/>
  <outline>
    <contour>
      <point x="-451" y="873" type="line"/>
      <point x="-384" y="937" type="line"/>
      <point x="-250" y="784" type="line"/>
      <point x="-307" y="729" type="line"/>
    </contour>
  </outline>
</glyph>
<glyph name="uni0303.cap" format="2">
  <advance width="0"/>
  <outline>
    <contour>
      <point x="-495" y="802" type="line"/>
      <point x="-432" y="865" type="line" smooth="yes"/>
      <point x="-412" y="885"/>
      <point x="-346" y="885"/>
      <point x="-326" y="865" type="qcurve" smooth="yes"/>
      <point x="-284" y="823" type="line" smooth="yes"/>
      <point x="-279" y="818"/>
      <point x="-269" y="818"/>
      <point x="-264" y="823" type="qcurve" smooth="yes"/>
      <point x="-209" y="878" type="line"/>
      <point x="-158" y="826" type="line"/>
      <point x="-221" y="763" type="line" smooth="yes"/>
      <point x="-241" y="743"/>
      <point x="-307" y="743"/>
      <point x="-327" y="763" type="qcurve" smooth="yes"/>
      <point x="-369" y="805" type="line" smooth="yes"/>
      <point x="-374" y="810"/>
      <point x="-384" y="810"/>
      <point x="-389" y="805" type="qcurve" smooth="yes"/>
      <point x="-444" y="750" type="line"/>
    </contour>
  </outline>
</glyph>
<glyph name="uni0306.cap" format="2">
  <advance width="0"/>
  <outline>
    <contour>
      <point x="-459" y="832" type="qcurve" smooth="yes"/>
      <point x="-459" y="894" type="line"/>
      <point x="-389" y="894" type="line"/>
      <point x="-389" y="834" type="line" smooth="yes"/>
      <point x="-389" y="822"/>
      <point x="-377" y="822" type="qcurve" smooth="yes"/>
      <point x="-275" y="822" type="line" smooth="yes"/>
      <point x="-263" y="822"/>
      <point x="-263" y="834" type="qcurve" smooth="yes"/>
      <point x="-263" y="894" type="line"/>
      <point x="-193" y="894" type="line"/>
      <point x="-193" y="832" type="line" smooth="yes"/>
      <point x="-193" y="752"/>
      <point x="-273" y="752" type="qcurve" smooth="yes"/>
      <point x="-379" y="752" type="line" smooth="yes"/>
      <point x="-459" y="752"/>
    </contour>
  </outline>
</glyph>
<glyph name="uni0308.cap" format="2">
  <advance width="0"/>
  <outline>
    <contour>
      <point x="-475" y="763" type="line"/>
      <point x="-475" y="873" type="line"/>
      <point x="-370" y="873" type="line"/>
      <point x="-370" y="763" type="line"/>
    </contour>
    <contour>
      <point x="-283" y="763" type="line"/>
      <point x="-283" y="873" type="line"/>
      <point x="-177" y="873" type="line"/>
      <point x="-177" y="763" type="line"/>
    </contour>
  </outline>
</glyph>
<glyph name="uni030B.cap" format="2">
  <advance width="0"/>
  <outline>
    <contour>
      <point x="-477" y="778" type="line"/>
      <point x="-362" y="937" type="line"/>
      <point x="-291" y="882" type="line"/>
      <point x="-417" y="729" type="line"/>
    </contour>
    <contour>
      <point x="-299" y="778" type="line"/>
      <point x="-185" y="937" type="line"/>
      <point x="-114" y="882" type="line"/>
      <point x="-239" y="729" type="line"/>
    </contour>
  </outline>
</glyph>
<glyph name="uni0326.alt" format="2">
  <advance width="0"/>
  <outline>
    <contour>
      <point x="-43" y="617" type="line"/>
      <point x="12" y="752" type="line"/>
      <point x="91" y="730" type="line"/>
      <point x="61" y="599" type="line"/>
      <point x="-31" y="599" type="line"/>
    </contour>
  </outline>
</glyph>
